<?xml version="1.0" standalone="no"?><!DOCTYPE svg PUBLIC "-//W3C//DTD SVG 1.1//EN" "http://www.w3.org/Graphics/SVG/1.1/DTD/svg11.dtd"><svg t="1530477449285" class="icon" style="" viewBox="0 0 3374 1024" version="1.1" xmlns="http://www.w3.org/2000/svg" p-id="566" xmlns:xlink="http://www.w3.org/1999/xlink" width="105.4375" height="32"><defs><style type="text/css"></style></defs><path d="M121.712302 239.142538l-14.51548 482.204255v7.983514l-7.765782-1.741858-25.764978-5.733614-5.29815-1.233816v-5.370728l14.51548-476.107753H0V200.313628h84.552673l0.508041-43.546441v-7.910937l7.910937 1.814435 25.764978 5.733615 5.225573 1.161238v5.298151l-0.435465 37.449939h415.070159v477.849611h70.835544V583.15942h33.313027v128.026537H499.695409V239.142538z m1692.287269-24.168275h393.224361v-34.546843h38.82891v34.546843h74.609569v38.82891h-74.609569v37.740249h-38.82891v-37.740249h-408.90108v40.861077h-38.828909v-40.861077h-82.157619v-38.82891h82.157619v-34.546843h38.828909v34.546843z m-635.705459 463.551863h261.278645v-224.989944h-261.278645z m-301.051061-224.989944v224.989944H1139.465202v-224.989944zM1139.465202 319.485721h-262.222151v95.439283H1139.465202V319.776031z m300.325287 95.148973V319.776031h-261.278645v95.148973z m41.804584-127.445917v424.287489h-642.890622V280.874544h643.180931v6.604543z m270.568552 98.414957l-60.529553-7.83836-4.136911-0.508041-1.306394-3.91918-8.491556-25.6924-2.757941-8.128669 8.636711-0.508042 100.447123-5.806192 7.257741-0.435464v378.854035h-38.82891V385.894043z m541.790302 13.789706l-129.623239 5.58846v270.278243h155.896258v36.288701h-194.725168V408.973657l-53.707277 4.499799-6.386811 0.508042-0.725774-6.386812-2.903096-25.764977-0.798352-6.749698 6.822276-0.508042 57.699034-4.644954v-59.513469h38.82891v53.126658l126.284678-5.58846h6.241657l0.653196 6.169079 2.757942 28.595496 0.725774 7.25774h-7.25774z m222.449735 305.478283V180.572575h643.180932v531.194001h-643.180932v-6.604544z m336.976875-311.13932v284.793723h264.254319V393.732403z m-298.075388 0v284.793723h256.343382V393.732403z m298.075388-174.185764V354.903493h264.254319V219.401485z m-298.075388 0V354.903493h256.343382V219.401485zM92.971651 880.291302h16.184761v88.689584a59.658624 59.658624 0 0 1-12.918778 40.207881 46.159227 46.159227 0 0 1-35.780659 14.51548 108.430638 108.430638 0 0 1-22.281262-2.177322 170.702048 170.702048 0 0 1-23.297346-6.531966l-1.37897-0.508042v-1.451548l2.975673-12.701045 0.435465-1.741858 1.66928 0.508042a200.313628 200.313628 0 0 0 22.281262 5.806192 104.366303 104.366303 0 0 0 19.233011 1.814435 28.232609 28.232609 0 0 0 23.007037-9.870526 43.546441 43.546441 0 0 0 8.056091-27.724568v-88.834739z m193.346198 0h16.039605v140.582426h-17.636308v-140.582426z m297.567345 0h15.967029v83.826899a59.295737 59.295737 0 0 1-16.547648 43.54644 67.279251 67.279251 0 0 1-87.891233 0 59.731201 59.731201 0 0 1-16.47507-43.54644v-83.826899h17.636309v83.826899a43.546441 43.546441 0 0 0 11.612384 31.426014 42.675512 42.675512 0 0 0 31.135705 11.684962 40.135303 40.135303 0 0 0 42.893244-43.110976v-83.826899z m330.009445 138.985724l-6.023925-99.503618-47.393043 100.156814-0.508042 0.943506h-14.950944l-0.435465-0.943506-47.320465-100.156814-5.87877 99.503618v1.596702h-17.491154v-1.741857l8.056092-137.243866v-1.596703h16.329915l0.508042 1.016083 53.562122 116.777039 53.6347-116.777039 0.435464-1.016083h16.329916v1.596703l8.056091 137.243866v1.741857h-17.418576v-1.596702z m296.768994-138.985724h15.967028v83.826899a59.295737 59.295737 0 0 1-16.547647 43.54644 67.279251 67.279251 0 0 1-87.891233 0 59.731201 59.731201 0 0 1-16.47507-43.54644v-83.826899h17.636308v83.826899a43.546441 43.546441 0 0 0 11.612384 31.426014 42.675512 42.675512 0 0 0 31.135706 11.684962 40.135303 40.135303 0 0 0 42.893244-43.110976v-83.826899z m306.712099 1.66928v138.913146h-17.636309v-61.400481h-80.415761v61.400481h-17.636308v-140.582426h17.636308v62.779452h79.835142v-62.779452h17.636308v1.66928z m281.310007-1.66928h15.967029v83.826899a59.295737 59.295737 0 0 1-16.547648 43.54644 67.279251 67.279251 0 0 1-87.891233 0 59.731201 59.731201 0 0 1-16.47507-43.54644v-83.826899h17.636309v83.826899a43.546441 43.546441 0 0 0 11.612384 31.426014 42.675512 42.675512 0 0 0 31.135705 11.684962 40.280458 40.280458 0 0 0 42.965822-43.110976v-83.826899z m283.051866 107.051667h-74.536991l-14.51548 32.514676-0.435465 1.016083h-19.886208l1.088661-2.322476 62.343988-138.25995 0.435464-1.016084h15.894451l0.435465 1.016084 62.343988 138.332527 1.016083 2.322477h-19.523321l-0.435464-1.016084-14.515481-32.514676z m-7.25774-16.184761l-29.974467-67.787292-30.119621 67.787292z m298.29312-74.391836h-52.691194v124.107356h-17.636308v-124.107356h-54.287896v-16.47507h126.212101v16.47507z m160.250902-16.47507h16.039606v140.582426h-17.636309v-140.582426z m289.874141 107.051667h-74.972455l-14.515481 32.514676-0.435464 1.016083h-19.741053l1.016083-2.322476 62.416566-138.25995 0.435464-1.016084h15.821874l0.435464 1.016084 62.997184 138.332527 1.016084 2.322477H2837.776396l-0.435465-1.016084-14.51548-32.514676z m-7.25774-16.184761l-29.974467-67.787292-30.917973 67.787292z m311.13932-90.866906h15.967028v140.582426h-16.983111l-0.435465-0.653196-85.496179-110.027341v110.680537h-17.636308v-140.582426h16.402492l0.508042 0.653196 85.786489 110.462805v-111.116001zM838.414141 235.150781V202.926414h303.010651l-21.265178-29.756734-3.846603-5.370728 5.370728-3.846602 20.176518-14.225171 5.152995-3.701447 3.846602 4.935263 40.861077 51.965419h289.801564v38.82891h-643.108354z" fill="#515151" p-id="567"></path></svg>